<svg t="1714310798152" class="icon" viewBox="0 0 1024 1024" version="1.1" xmlns="http://www.w3.org/2000/svg" p-id="5440" width="400" height="400"><path d="M414.151111 294.912a56.888889 56.888889 0 0 0-56.490667-50.062222H349.866667A946.289778 946.289778 0 0 1 967.111111 17.066667a39.822222 39.822222 0 0 1 0 79.644444 866.816 866.816 0 0 0-552.96 198.200889zM294.115556 415.118222A866.816 866.816 0 0 0 96.711111 967.111111a39.822222 39.822222 0 0 1-79.644444 0c0-235.064889 85.333333-450.218667 226.816-616.106667v7.623112a56.888889 56.888889 0 0 0 50.176 56.490666z" fill="#9DA6B8" p-id="5441"></path><path d="M300.771556 165.205333h56.888888a136.533333 136.533333 0 0 1 136.533334 136.533334v56.888889a136.533333 136.533333 0 0 1-136.533334 136.533333h-56.888888a136.533333 136.533333 0 0 1-136.533334-136.533333v-56.888889a136.533333 136.533333 0 0 1 136.533334-136.533334z m0 79.644445a56.888889 56.888889 0 0 0-56.888889 56.888889v56.888889a56.888889 56.888889 0 0 0 56.888889 56.888888h56.888888a56.888889 56.888889 0 0 0 56.888889-56.888888v-56.888889a56.888889 56.888889 0 0 0-56.888889-56.888889h-56.888888z" fill="#9DA6B8" p-id="5442"></path></svg>