<svg t="1714310913322" class="icon" viewBox="0 0 1654 1024" version="1.1" xmlns="http://www.w3.org/2000/svg" p-id="6443" width="400" height="400"><path d="M827.076923 63.015385C413.774769 63.015385 78.769231 512 78.769231 512s335.005538 448.984615 748.307692 448.984615S1575.384615 512 1575.384615 512 1240.379077 63.015385 827.076923 63.015385z m0 823.138461c-296.566154 0-557.764923-266.24-651.500308-374.153846C269.154462 403.771077 529.644308 137.846154 827.076923 137.846154c296.566154 0 557.764923 266.24 651.500308 374.153846-93.577846 108.150154-354.067692 374.153846-651.500308 374.153846z m0-617.393231a243.160615 243.160615 0 1 0 0 486.4 243.160615 243.160615 0 0 0 0-486.4z m0 411.569231A168.566154 168.566154 0 0 1 658.668308 512 168.566154 168.566154 0 0 1 827.076923 343.591385 168.566154 168.566154 0 0 1 995.406769 512 168.566154 168.566154 0 0 1 827.076923 680.329846z" fill="#015EEA" p-id="6444"></path></svg>