<svg t="1713184921664" class="icon" viewBox="0 0 1024 1024" version="1.1" xmlns="http://www.w3.org/2000/svg" p-id="7135" width="200" height="200"><path d="M889.2 787.1c-7.1-6.7-124.8-113-128.7-116.6-4.3-4-10.1-6.1-14.3-6.2-7.6-0.5-11.8 1.4-15.7 3.1-3 1.4-5.8 3.1-8.6 4.9-9.6-8.9-17.3-16.6-21.7-20.2-0.8-0.6-2-0.6-3.6-0.2-1.9-1.8-4.6-4.4-7.7-7.2-1.4-1.3-4.6-0.2-8.6 2.3-3.2-3-9.3-8.7-14.7-13.7 30.2-35.4 47.3-78.1 51.1-121.5 5.6-64.2-17.6-130.2-68.4-177.3-36.5-33.9-81.7-52.6-127.8-56.6-64-5.5-130 17.7-177 68.7-33.7 36.6-52.6 82-56.6 128.1-5.5 64.2 17.6 130.2 68.4 177.3 36.5 33.9 81.7 52.6 127.8 56.6h0.1c54.8 4.8 111-11.6 155.5-48.4 5.5 5.1 12 11 15.6 14.4-2.1 3.9-2.9 7.2-1.2 8.8 2.9 2.7 5.3 5 7.1 6.7-0.2 1.8 0 3.2 1.1 4 3.2 2.7 10.8 10.1 20.7 19.1-3.7 5.9-7.1 11.5-8.3 21.1-0.7 5.5 0.8 14.9 7.8 21.3 4.6 4.3 124.5 112.6 128.3 116.2 4.4 4 9.4 5.5 12.8 5.7h0.1c6.1 0.4 9.1-1.1 11.6-1.9 8.1-3.8 12-7.7 18.2-13 8.4-7.8 17.8-17.8 25.7-27 3.9-4.6 7.4-9 10.2-13.1 1.4-2.1 2.7-4.2 4-6.4 1.2-2.5 2.6-4.5 3.4-10.8 0.5-3.6 0.4-11.5-6.6-18.2zM486.6 667.2c-37.3-3.2-73.7-18.3-103.3-45.7-41.2-38.1-59.9-91.4-55.4-143.4 3.2-37.3 18.3-73.8 45.7-103.5 38-41.2 91.3-59.9 143.2-55.5 37.3 3.2 73.7 18.3 103.3 45.7 41.2 38.1 59.8 91.4 55.4 143.3-3.2 37.3-18.3 73.8-45.6 103.5-38.1 41.4-91.3 60-143.3 55.6zM960 511.9L834.3 386.2l-22.1 22.3 103.6 103.6-103.6 103.6 22.1 22.1L960 512.1h-0.1zM64 511.9l125.7-125.7 22.1 22.3-103.6 103.6 103.6 103.6-22.1 22.1L64 512.1h0.1zM511.9 64L386.2 189.7l22.1 22.1 103.8-103.6 103.6 103.6 22.1-22.1L512.1 64v0.1zM511.9 960L386.2 834.3l22.1-22.1 103.8 103.6 103.6-103.6 22.1 22.1L512.1 960v-0.1z" p-id="7136" fill="#32429d"></path></svg>