<svg viewBox="0 0 860 300" xmlns="http://www.w3.org/2000/svg" xmlns:svg="http://www.w3.org/2000/svg" class="icon" version="1.1">
 <g class="layer">
  <title>Layer 1</title>
  <path d="m122.52,101.68a49.05,49.05 0 0 0 -49.08,49.04l0,147.28l98.15,0l0,-147.28a49.09,49.09 0 0 0 -49.08,-49.04l0.01,0zm0,10.9a38.13,38.13 0 0 0 -38.17,38.08l0,136.42l76.35,0l0,-136.42a38.15,38.15 0 0 0 -38.17,-38.08l-0.01,0zm0,10.9c-15.05,0 -27.27,12.31 -27.27,27.38l0,38.06l54.53,0l0,-38.06c0,-15.11 -12.11,-27.38 -27.27,-27.38l0.01,0zm0,10.9c-9.03,0 -16.36,7.4 -16.36,16.36l0,27.27l32.72,0l0,-27.27c0,-9.03 -7.27,-16.36 -16.36,-16.36l0.01,0l-0.01,0zm-27.27,87.25l0,10.9l54.53,0l0,-10.9l-54.53,0zm0,21.81l0,10.9l54.53,0l0,-10.9l-54.53,0zm147.23,-174.5a49.08,49.08 0 0 0 -49.08,49.14l0,179.9l98.15,0l0,-179.9a49.15,49.15 0 0 0 -49.08,-49.14l0.01,0zm0,10.9a38.22,38.22 0 0 0 -38.17,38.24l0,168.98l76.35,0l0,-168.98a38.23,38.23 0 0 0 -38.17,-38.24l-0.01,0zm0,10.9c-15.05,0 -27.27,12.31 -27.27,27.38l0,38.06l54.53,0l0,-38.06c0,-15.11 -12.11,-27.38 -27.27,-27.38l0.01,0zm0,10.9c-9.03,0 -16.36,7.4 -16.36,16.36l0,27.27l32.72,0l0,-27.27c0,-9.03 -7.27,-16.36 -16.36,-16.36l0.01,0l-0.01,0zm-27.27,87.25l0,10.9l54.53,0l0,-10.9l-54.53,0zm0,21.81l0,10.9l54.53,0l0,-10.9l-54.53,0zm98.15,-51.87a81.8,81.8 0 0 0 -144.87,-75.78a81.8,81.8 0 0 0 -116.88,108.5l0,-40.87a70.89,70.89 0 0 1 121.89,-49.19a70.92,70.92 0 0 1 68.97,-54.4c39.08,0 70.89,31.72 70.89,70.86l0,40.87l0,0.01zm0,34.73a103.61,103.61 0 1 0 -152.67,-139.19a103.34,103.34 0 0 0 -38.2,-7.27a103.61,103.61 0 0 0 -70.89,179.17l0,14.38a114.3,114.3 0 0 1 -43.63,-89.94c0,-63.24 51.27,-114.52 114.52,-114.52c12.11,0 23.76,1.88 34.71,5.34a114.23,114.23 0 0 1 85.27,-38.06c63.24,0 114.52,51.27 114.52,114.52c0,36.48 -17.05,68.97 -43.63,89.94l0,-14.38l0,0.01z" fill="#1296db" id="svg_1" transform="matrix(1 0 0 1 0 0)"/>
  <text fill="#1296db" font-family="Serif" font-size="95" id="svg_3" stroke-width="0" text-anchor="middle" transform="matrix(1 0 0 1 0 0) matrix(1.06101 0 0 1.83796 -27.6302 -487.19)" x="605.21" xml:space="preserve" y="427.45">SmartZoom</text>
  <path d="m833.87,145.37l-16.25,0l0,-16.25c0,-4.47 -3.66,-8.13 -8.13,-8.13s-8.13,3.66 -8.13,8.13l0.28,16.25l-16.53,0c-4.47,0 -8.13,3.66 -8.13,8.13s3.66,8.13 8.13,8.13l16.53,-0.28l-0.28,16.53c0,4.47 3.66,8.13 8.13,8.13s8.13,-3.66 8.13,-8.13l0,-16.53l16.25,0.28c4.47,0 8.13,-3.66 8.13,-8.13s-3.66,-8.13 -8.13,-8.13z" fill="#7fff00" id="svg_2"/>
 </g>
</svg>