<svg width="1024" height="1024" xmlns="http://www.w3.org/2000/svg" xmlns:svg="http://www.w3.org/2000/svg" class="icon" version="1.1">
 <!-- Created with SVG-edit - https://github.com/SVG-Edit/svgedit-->
 <g class="layer">
  <title>Layer 2</title>
  <path d="m54.65,102.2c-2.31,0 -4.22,-1.87 -4.22,-4.18c0,-2.31 1.83,-4.18 4.14,-4.18l0.08,0a4.18,4.18 0 0 1 4.18,4.18a4.18,4.18 0 0 1 -4.18,4.18zm16.73,0c-2.31,0 -4.22,-1.87 -4.22,-4.18c0,-2.31 1.83,-4.18 4.14,-4.18l0.08,0a4.18,4.18 0 0 1 4.18,4.18a4.18,4.18 0 0 1 -4.18,4.18zm16.73,0c-2.31,0 -4.22,-1.87 -4.22,-4.18c0,-2.31 1.83,-4.18 4.14,-4.18l0.08,0a4.18,4.18 0 0 1 4.18,4.18a4.18,4.18 0 0 1 -4.18,4.18z" id="svg_1"/>
  <path d="m564.66,110.57l-526.98,0a4.18,4.18 0 0 1 -4.18,-4.18l0,-8.37c0,-6.92 5.63,-12.55 12.55,-12.55l510.25,0c6.92,0 12.55,5.63 12.55,12.55l0,8.37a4.18,4.18 0 0 1 -4.18,4.18l-0.01,0zm-522.81,-8.37l518.62,0l0,-4.18a4.19,4.19 0 0 0 -4.18,-4.18l-510.25,0a4.18,4.18 0 0 0 -4.18,4.18l0,4.18l-0.01,0z" id="svg_2"/>
  <path d="m564.66,461.89l-526.98,0a4.18,4.18 0 0 1 -4.18,-4.18l0,-351.32a4.18,4.18 0 0 1 4.18,-4.18l526.98,0a4.18,4.18 0 0 1 4.18,4.18l0,351.32a4.18,4.18 0 0 1 -4.18,4.18zm-522.81,-8.37l518.62,0l0,-342.95l-518.62,0l0,342.95z" id="svg_3"/>
  <path d="m363.9,336.42l-301.13,0a4.18,4.18 0 0 1 -4.18,-4.18l0,-200.76a4.18,4.18 0 0 1 4.18,-4.18l301.14,0a4.18,4.18 0 0 1 4.18,4.18l0,200.76a4.18,4.18 0 0 1 -4.18,4.18l-0.01,0zm-296.95,-8.36l292.77,0l0,-192.39l-292.77,0l0,192.39z" fill="#ff0000" id="svg_4" transform="matrix(1 0 0 1 0 0)"/>
  <path d="m363.9,319.69l-301.13,0a4.18,4.18 0 0 1 -4.18,-4.18a4.18,4.18 0 0 1 4.18,-4.18l301.14,0a4.18,4.18 0 0 1 4.18,4.18a4.18,4.18 0 0 1 -4.18,4.18l-0.01,0z" fill="#ff0000" id="svg_5"/>
  <path d="m79.5,336.42a4.18,4.18 0 0 1 -4.18,-4.18l0,-16.72a4.18,4.18 0 0 1 4.18,-4.18a4.18,4.18 0 0 1 4.18,4.18l0,16.72a4.18,4.18 0 0 1 -4.18,4.18zm267.67,0a4.18,4.18 0 0 1 -4.18,-4.18l0,-16.72a4.18,4.18 0 0 1 4.18,-4.18c2.31,0 4.18,1.87 4.18,4.18l0,16.72a4.18,4.18 0 0 1 -4.18,4.18zm-133.84,0c-6.92,0 -12.55,-5.63 -12.55,-12.55s5.63,-12.55 12.55,-12.55s12.55,5.63 12.55,12.55s-5.63,12.55 -12.55,12.55zm0,-16.73c-2.31,0 -4.18,1.88 -4.18,4.18s1.88,4.18 4.18,4.18s4.18,-1.88 4.18,-4.18s-1.88,-4.18 -4.18,-4.18z" fill="#ff0000" id="svg_6" transform="matrix(1 0 0 1 0 0)"/>
  <path d="m455.92,185.85l-66.92,0a4.18,4.18 0 0 1 -4.18,-4.18l0,-50.19a4.18,4.18 0 0 1 4.18,-4.18l66.92,0a4.18,4.18 0 0 1 4.18,4.18l0,50.19a4.18,4.18 0 0 1 -4.18,4.18zm-62.73,-8.36l58.55,0l0,-41.83l-58.55,0l0,41.83zm138.02,-33.46l-58.56,0c-2.31,0 -4.18,-1.87 -4.18,-4.18s1.87,-4.18 4.18,-4.18l58.56,0c2.31,0 4.18,1.87 4.18,4.18s-1.87,4.18 -4.18,4.18zm0,16.73l-58.56,0c-2.31,0 -4.18,-1.87 -4.18,-4.18s1.87,-4.18 4.18,-4.18l58.56,0c2.31,0 4.18,1.87 4.18,4.18s-1.87,4.18 -4.18,4.18zm-25.1,16.73l-33.46,0c-2.31,0 -4.18,-1.87 -4.18,-4.18s1.87,-4.18 4.18,-4.18l33.46,0c2.31,0 4.18,1.87 4.18,4.18s-1.87,4.18 -4.18,4.18z" id="svg_7"/>
  <path d="m455.92,261.14l-66.92,0a4.18,4.18 0 0 1 -4.18,-4.18l0,-50.19a4.18,4.18 0 0 1 4.18,-4.18l66.92,0a4.18,4.18 0 0 1 4.18,4.18l0,50.19a4.18,4.18 0 0 1 -4.18,4.18zm-62.73,-8.37l58.55,0l0,-41.82l-58.55,0l0,41.82zm138.02,-33.46l-58.56,0a4.18,4.18 0 0 1 -4.18,-4.18a4.18,4.18 0 0 1 4.18,-4.18l58.56,0a4.18,4.18 0 0 1 4.18,4.18a4.18,4.18 0 0 1 -4.18,4.18zm0,16.73l-58.56,0a4.18,4.18 0 0 1 -4.18,-4.18a4.18,4.18 0 0 1 4.18,-4.18l58.56,0a4.18,4.18 0 0 1 4.18,4.18a4.18,4.18 0 0 1 -4.18,4.18zm-25.1,16.73l-33.46,0a4.18,4.18 0 0 1 -4.18,-4.18a4.18,4.18 0 0 1 4.18,-4.18l33.46,0c2.31,0 4.18,1.87 4.18,4.18a4.18,4.18 0 0 1 -4.18,4.18z" id="svg_8"/>
  <path d="m455.92,336.42l-66.92,0a4.18,4.18 0 0 1 -4.18,-4.18l0,-50.18a4.18,4.18 0 0 1 4.18,-4.18l66.92,0a4.18,4.18 0 0 1 4.18,4.18l0,50.18a4.18,4.18 0 0 1 -4.18,4.18zm-62.73,-8.36l58.55,0l0,-41.83l-58.55,0l0,41.83zm138.02,-33.46l-58.56,0c-2.31,0 -4.18,-1.87 -4.18,-4.18s1.87,-4.18 4.18,-4.18l58.56,0c2.31,0 4.18,1.87 4.18,4.18s-1.87,4.18 -4.18,4.18zm0,16.73l-58.56,0c-2.31,0 -4.18,-1.87 -4.18,-4.18s1.87,-4.18 4.18,-4.18l58.56,0c2.31,0 4.18,1.87 4.18,4.18s-1.87,4.18 -4.18,4.18zm-25.1,16.73l-33.46,0c-2.31,0 -4.18,-1.87 -4.18,-4.18s1.87,-4.18 4.18,-4.18l33.46,0c2.31,0 4.18,1.87 4.18,4.18s-1.87,4.18 -4.18,4.18z" id="svg_9"/>
  <path d="m455.92,411.7l-66.92,0a4.18,4.18 0 0 1 -4.18,-4.18l0,-50.19a4.18,4.18 0 0 1 4.18,-4.18l66.92,0a4.18,4.18 0 0 1 4.18,4.18l0,50.19a4.18,4.18 0 0 1 -4.18,4.18zm-62.73,-8.37l58.55,0l0,-41.82l-58.55,0l0,41.82zm138.02,-33.46l-58.56,0a4.18,4.18 0 0 1 -4.18,-4.18a4.18,4.18 0 0 1 4.18,-4.18l58.56,0a4.18,4.18 0 0 1 4.18,4.18a4.18,4.18 0 0 1 -4.18,4.18zm0,16.73l-58.56,0a4.18,4.18 0 0 1 -4.18,-4.18a4.18,4.18 0 0 1 4.18,-4.18l58.56,0a4.18,4.18 0 0 1 4.18,4.18a4.18,4.18 0 0 1 -4.18,4.18zm-25.1,16.73l-33.46,0a4.18,4.18 0 0 1 -4.18,-4.18a4.18,4.18 0 0 1 4.18,-4.18l33.46,0c2.31,0 4.18,1.87 4.18,4.18a4.18,4.18 0 0 1 -4.18,4.18z" id="svg_10"/>
  <path d="m531.2,445.16l-58.56,0a4.18,4.18 0 0 1 -4.18,-4.18a4.18,4.18 0 0 1 4.18,-4.18l58.56,0a4.18,4.18 0 0 1 4.18,4.18a4.18,4.18 0 0 1 -4.18,4.18z" id="svg_11"/>
  <path d="m363.9,411.7l-301.13,0a4.18,4.18 0 0 1 -4.18,-4.18l0,-50.19a4.18,4.18 0 0 1 4.18,-4.18l301.14,0a4.18,4.18 0 0 1 4.18,4.18l0,50.19a4.18,4.18 0 0 1 -4.18,4.18l-0.01,0zm-296.95,-8.37l292.77,0l0,-41.82l-292.77,0l0,41.82z" id="svg_12"/>
  <path d="m347.17,378.24l-234.21,0a4.18,4.18 0 0 1 -4.18,-4.18a4.18,4.18 0 0 1 4.18,-4.18l234.21,0c2.31,0 4.18,1.87 4.18,4.18a4.18,4.18 0 0 1 -4.18,4.18z" id="svg_13"/>
  <path d="m196.61,394.97l-83.65,0c-2.31,0 -4.18,-1.87 -4.18,-4.18s1.87,-4.18 4.18,-4.18l83.65,0c2.31,0 4.18,1.87 4.18,4.18s-1.87,4.18 -4.18,4.18z" id="svg_14"/>
  <path d="m96.23,394.97l-16.73,0a4.18,4.18 0 0 1 -4.18,-4.18l0,-16.73a4.18,4.18 0 0 1 4.18,-4.18l16.73,0a4.18,4.18 0 0 1 4.18,4.18l0,16.73a4.18,4.18 0 0 1 -4.18,4.18zm-12.55,-8.37l8.37,0l0,-8.36l-8.37,0l0,8.36z" id="svg_15"/>
  <path d="m62.77,445.16a4.18,4.18 0 0 1 -4.18,-4.18l0,-8.36a4.18,4.18 0 0 1 4.18,-4.18a4.18,4.18 0 0 1 4.18,4.18l0,8.36a4.18,4.18 0 0 1 -4.18,4.18z" id="svg_16"/>
  <path d="m363.9,436.79l-301.13,0a4.18,4.18 0 0 1 -4.18,-4.18a4.18,4.18 0 0 1 4.18,-4.18l301.14,0a4.18,4.18 0 0 1 4.18,4.18a4.18,4.18 0 0 1 -4.18,4.18l-0.01,0z" id="svg_17"/>
  <path d="m363.9,445.16c-2.31,0 -4.18,-1.87 -4.18,-4.18l0,-8.36a4.18,4.18 0 0 1 4.18,-4.18a4.18,4.18 0 0 1 4.18,4.18l0,8.36a4.18,4.18 0 0 1 -4.18,4.18z" id="svg_18"/>
  <path d="m389,445.16a4.18,4.18 0 0 1 -4.18,-4.18l0,-8.36c0,-2.31 1.87,-4.18 4.18,-4.18s4.18,1.87 4.18,4.18l0,8.36a4.18,4.18 0 0 1 -4.18,4.18z" id="svg_19"/>
  <path d="m455.92,436.79l-66.92,0a4.18,4.18 0 0 1 -4.18,-4.18a4.18,4.18 0 0 1 4.18,-4.18l66.92,0a4.18,4.18 0 0 1 4.18,4.18a4.18,4.18 0 0 1 -4.18,4.18z" id="svg_20"/>
  <path d="m455.92,445.16c-2.31,0 -4.18,-1.87 -4.18,-4.18l0,-8.36c0,-2.31 1.87,-4.18 4.18,-4.18s4.18,1.87 4.18,4.18l0,8.36a4.18,4.18 0 0 1 -4.18,4.18z" id="svg_21"/>
  <path d="m169.89,159.67l-83.65,0c-2.31,0 -4.18,-1.87 -4.18,-4.18s1.87,-4.18 4.18,-4.18l83.65,0c2.31,0 4.18,1.87 4.18,4.18s-1.87,4.18 -4.18,4.18z" id="svg_23"/>
  <path d="m320.13,179.72l-234.21,0a4.18,4.18 0 0 1 -4.18,-4.18a4.18,4.18 0 0 1 4.18,-4.18l234.21,0c2.31,0 4.18,1.87 4.18,4.18a4.18,4.18 0 0 1 -4.18,4.18z" id="svg_26"/>
  <path d="m318.39,199.77l-234.21,0a4.18,4.18 0 0 1 -4.18,-4.18a4.18,4.18 0 0 1 4.18,-4.18l234.21,0c2.31,0 4.18,1.87 4.18,4.18a4.18,4.18 0 0 1 -4.18,4.18z" id="svg_27"/>
  <path d="m314.1,247.36l-24.29,0a6.06,6.06 0 0 1 -6.07,-6.07l0,-24.28a6.06,6.06 0 0 1 6.07,-6.07l24.29,0a6.06,6.06 0 0 1 6.07,6.07l0,24.28a6.06,6.06 0 0 1 -6.07,6.07zm-23.78,-7.76l23.28,0.56l-0.31,-21.72l-23.28,0l0.31,21.16z" id="svg_30"/>
  <path d="m269.61,219.82l-183.72,0a3.28,4.18 0 0 1 -3.28,-4.18a3.28,4.18 0 0 1 3.28,-4.18l183.72,0c1.81,0 3.28,1.87 3.28,4.18a3.28,4.18 0 0 1 -3.28,4.18z" id="svg_31"/>
  <path d="m169.89,238.99l-83.65,0c-2.31,0 -4.18,-1.87 -4.18,-4.18s1.87,-4.18 4.18,-4.18l83.65,0c2.31,0 4.18,1.87 4.18,4.18s-1.87,4.18 -4.18,4.18z" id="svg_32"/>
  <path d="m272.74,238.12l-83.65,0c-2.31,0 -4.18,-1.87 -4.18,-4.18s1.87,-4.18 4.18,-4.18l83.65,0c2.31,0 4.18,1.87 4.18,4.18s-1.87,4.18 -4.18,4.18z" id="svg_33"/>
  <path d="m320.13,263.4l-234.21,0a4.18,4.18 0 0 1 -4.18,-4.18a4.18,4.18 0 0 1 4.18,-4.18l234.21,0c2.31,0 4.18,1.87 4.18,4.18a4.18,4.18 0 0 1 -4.18,4.18z" id="svg_35"/>
  <path d="m319.26,284.32l-234.21,0a4.18,4.18 0 0 1 -4.18,-4.18a4.18,4.18 0 0 1 4.18,-4.18l234.21,0c2.31,0 4.18,1.87 4.18,4.18a4.18,4.18 0 0 1 -4.18,4.18z" id="svg_36"/>
  <g id="svg_74">
   <path d="m492.1,540.16c-3.39,0 -6.21,-2.75 -6.21,-6.15c0,-3.4 2.68,-6.14 6.08,-6.14l0.12,0a6.14,6.14 0 0 1 6.15,6.14a6.14,6.14 0 0 1 -6.15,6.15l0.01,0zm24.6,0c-3.39,0 -6.21,-2.75 -6.21,-6.15c0,-3.4 2.68,-6.14 6.08,-6.14l0.12,0a6.14,6.14 0 0 1 6.15,6.14a6.14,6.14 0 0 1 -6.15,6.15l0.01,0zm24.6,0c-3.39,0 -6.21,-2.75 -6.21,-6.15c0,-3.4 2.68,-6.14 6.08,-6.14l0.12,0a6.14,6.14 0 0 1 6.15,6.14a6.14,6.14 0 0 1 -6.15,6.15l0.01,0z" id="svg_71"/>
   <path d="m1003.73,552.47l-538.47,0a4.27,6.14 0 0 1 -4.27,-6.15l0,-12.3c0,-10.17 5.75,-18.45 12.82,-18.45l521.37,0c7.07,0 12.82,8.27 12.82,18.45l0,12.3a4.27,6.14 0 0 1 -4.27,6.15zm-534.2,-12.3l529.92,0l0,-6.15a4.28,6.16 0 0 0 -4.27,-6.14l-521.37,0a4.27,6.15 0 0 0 -4.27,6.14l0,6.15l-0.01,0z" id="svg_70"/>
   <path d="m1003.73,922.01l-538.47,0a4.27,4.44 0 0 1 -4.27,-4.44l0,-372.97a4.27,4.44 0 0 1 4.27,-4.44l538.47,0a4.27,4.44 0 0 1 4.27,4.44l0,372.97a4.27,4.44 0 0 1 -4.27,4.44zm-534.2,-8.88l529.92,0l0,-364.08l-529.92,0l0,364.08z" fill="#000000" id="svg_69"/>
   <path d="m946.82,884.56l-442.79,0a6.14,6.14 0 0 1 -6.15,-6.15l0,-295.19a6.14,6.14 0 0 1 6.15,-6.14l442.8,0a6.14,6.14 0 0 1 6.14,6.14l0,295.19a6.15,6.15 0 0 1 -6.15,6.15zm-436.64,-12.3l430.49,0l0,-282.9l-430.49,0l0,282.9z" fill="#00ff00" id="svg_68"/>
   <path d="m946.82,859.96l-442.79,0a6.14,6.14 0 0 1 -6.15,-6.14a6.14,6.14 0 0 1 6.15,-6.15l442.8,0a6.14,6.14 0 0 1 6.14,6.15a6.15,6.15 0 0 1 -6.15,6.14z" fill="#00ff00" id="svg_67"/>
   <path d="m528.63,884.56a6.14,6.14 0 0 1 -6.15,-6.15l0,-24.59a6.14,6.14 0 0 1 6.15,-6.15a6.14,6.14 0 0 1 6.15,6.15l0,24.59a6.14,6.14 0 0 1 -6.15,6.15zm393.59,0a6.14,6.14 0 0 1 -6.14,-6.15l0,-24.59a6.14,6.14 0 0 1 6.14,-6.15c3.4,0 6.15,2.75 6.15,6.15l0,24.59a6.14,6.14 0 0 1 -6.15,6.15zm-196.8,0c-10.17,0 -18.45,-8.27 -18.45,-18.45s8.27,-18.45 18.45,-18.45s18.45,8.27 18.45,18.45s-8.27,18.45 -18.45,18.45zm0,-24.6c-3.39,0 -6.15,2.77 -6.15,6.15s2.76,6.15 6.15,6.15s6.15,-2.77 6.15,-6.15s-2.76,-6.15 -6.15,-6.15z" fill="#00ff00" id="svg_66"/>
   <path d="m661.54,624.67l-123,0c-3.4,0 -6.15,-2.75 -6.15,-6.15s2.75,-6.15 6.15,-6.15l123,0c3.4,0 6.15,2.75 6.15,6.15s-2.75,6.15 -6.15,6.15z" fill="#00ff00" id="svg_50"/>
   <path d="m882.46,654.15l-344.39,0a6.14,6.14 0 0 1 -6.15,-6.15a6.14,6.14 0 0 1 6.15,-6.15l344.39,0c3.4,0 6.15,2.75 6.15,6.15a6.14,6.14 0 0 1 -6.15,6.15z" fill="#00ff00" id="svg_49"/>
   <path d="m879.9,683.63l-344.39,0a6.14,6.14 0 0 1 -6.15,-6.15a6.14,6.14 0 0 1 6.15,-6.15l344.39,0c3.4,0 6.15,2.75 6.15,6.15a6.14,6.14 0 0 1 -6.15,6.15z" fill="#00ff00" id="svg_48"/>
   <path d="m873.58,753.61l-35.71,0a8.92,8.92 0 0 1 -8.93,-8.93l0,-35.7a8.92,8.92 0 0 1 8.93,-8.93l35.71,0a8.92,8.92 0 0 1 8.93,8.93l0,35.7a8.92,8.92 0 0 1 -8.93,8.93zm-34.97,-11.41l34.23,0.83l-0.45,-31.94l-34.23,0l0.45,31.12l0,-0.01z" fill="#00ff00" id="svg_47"/>
   <path d="m808.17,713.11l-270.15,0a4.82,6.14 0 0 1 -4.83,-6.15a4.82,6.14 0 0 1 4.83,-6.15l270.15,0c2.67,0 4.83,2.75 4.83,6.15a4.82,6.14 0 0 1 -4.83,6.15z" fill="#00ff00" id="svg_46"/>
   <path d="m661.54,741.3l-123,0c-3.4,0 -6.15,-2.75 -6.15,-6.15s2.75,-6.15 6.15,-6.15l123,0c3.4,0 6.15,2.75 6.15,6.15s-2.75,6.15 -6.15,6.15z" fill="#00ff00" id="svg_45"/>
   <path d="m812.77,740.02l-123,0c-3.4,0 -6.15,-2.75 -6.15,-6.15s2.75,-6.15 6.15,-6.15l123,0c3.4,0 6.15,2.75 6.15,6.15s-2.75,6.15 -6.15,6.15z" fill="#00ff00" id="svg_44"/>
   <path d="m882.46,777.19l-344.39,0a6.14,6.14 0 0 1 -6.15,-6.15a6.14,6.14 0 0 1 6.15,-6.15l344.39,0c3.4,0 6.15,2.75 6.15,6.15a6.14,6.14 0 0 1 -6.15,6.15z" fill="#00ff00" id="svg_43"/>
   <path d="m881.18,807.95l-344.39,0a6.14,6.14 0 0 1 -6.15,-6.15a6.14,6.14 0 0 1 6.15,-6.15l344.39,0c3.4,0 6.15,2.75 6.15,6.15a6.14,6.14 0 0 1 -6.15,6.15z" fill="#00ff00" id="svg_42"/>
  </g>
 </g>
 <g class="layer">
  <title>Layer 3</title>
  <g id="svg_22" transform="rotate(-39.3322 294 250.687) matrix(0.23 0 0 0.23 451.22 328.405)">
   <svg class="icon" height="400" id="svg_28" version="1.1" viewBox="0 0 1024 1024" width="400" x="-883.56" xmlns="http://www.w3.org/2000/svg" y="-556.65">
    <path d="m336,416a143.94,143.94 0 0 0 -144,143.87l0,432.13l288,0l0,-432.13a144.03,144.03 0 0 0 -144,-143.87zm0,32a111.87,111.87 0 0 0 -112,111.71l0,400.29l224,0l0,-400.29a111.94,111.94 0 0 0 -112,-111.71zm0,32c-44.16,0 -80,36.13 -80,80.32l0,111.68l160,0l0,-111.68c0,-44.35 -35.52,-80.32 -80,-80.32zm0,32c-26.5,0 -48,21.73 -48,48l0,80l96,0l0,-80c0,-26.5 -21.31,-48 -48,-48zm-80,256l0,32l160,0l0,-32l-160,0zm0,64l0,32l160,0l0,-32l-160,0zm432,-512a144,144 0 0 0 -144,144.16l0,527.84l288,0l0,-527.84a144.19,144.19 0 0 0 -144,-144.16zm0,32a112.13,112.13 0 0 0 -112,112.22l0,495.78l224,0l0,-495.78a112.19,112.19 0 0 0 -112,-112.22zm0,32c-44.16,0 -80,36.13 -80,80.32l0,111.68l160,0l0,-111.68c0,-44.35 -35.52,-80.32 -80,-80.32zm0,32c-26.5,0 -48,21.73 -48,48l0,80l96,0l0,-80c0,-26.5 -21.31,-48 -48,-48zm-80,256l0,32l160,0l0,-32l-160,0zm0,64l0,32l160,0l0,-32l-160,0zm288,-152.19a240,240 0 0 0 -425.06,-222.34a240,240 0 0 0 -342.94,318.37l0,-119.9a208,208 0 0 1 357.63,-144.32a208.1,208.1 0 0 1 202.37,-159.62c114.66,0 208,93.09 208,207.9l0,119.91zm0,101.89a304,304 0 1 0 -447.94,-408.39a303.2,303.2 0 0 0 -112.06,-21.31a304,304 0 0 0 -208,525.7l0,42.2a335.39,335.39 0 0 1 -128,-263.9c0,-185.57 150.43,-336 336,-336c35.52,0 69.7,5.5 101.82,15.68a335.17,335.17 0 0 1 250.18,-111.68c185.57,0 336,150.43 336,336c0,107.04 -50.05,202.37 -128,263.9l0,-42.2z" fill="#00ff00" id="svg_29"/>
   </svg>
  </g>
  <path d="m770.44,214l27.11,0l0,27.11l-27.11,0l0,-27.11zm-20.33,33.89l67.78,0l0,13.56l-13.56,0l0,88.11l-13.56,0l0,-40.67l-13.56,0l0,40.67l-13.56,0l0,-88.11l-13.56,0l0,-13.56zm-13.56,-13.56l0,13.56l13.56,0l0,-13.56l-13.56,0zm0,0l-13.56,0l0,-13.56l13.56,0l0,13.56zm94.89,0l0,13.56l-13.56,0l0,-13.56l13.56,0zm0,0l0,-13.56l13.56,0l0,13.56l-13.56,0z" fill="#0000ff" id="svg_34"/>
 </g>
</svg>